<?xml version="1.0" standalone="no"?>
<!DOCTYPE svg PUBLIC "-//W3C//DTD SVG 20010904//EN"
 "http://www.w3.org/TR/2001/REC-SVG-20010904/DTD/svg10.dtd">
<svg version="1.0" xmlns="http://www.w3.org/2000/svg"
 width="880.000000pt" height="880.000000pt" viewBox="0 0 880.000000 880.000000"
 preserveAspectRatio="xMidYMid meet">

<g transform="translate(0.000000,880.000000) scale(0.100000,-0.100000)"
fill="#000000" stroke="none">
<path d="M4516 8461 c-2 -3 -7 -117 -11 -253 l-7 -247 -67 98 c-36 53 -113
166 -171 249 l-105 152 -90 -6 c-49 -4 -94 -10 -99 -15 -8 -7 67 -725 77 -736
3 -2 34 -1 70 3 l66 7 -5 66 c-24 324 -31 447 -29 450 4 3 106 -150 245 -369
40 -63 78 -120 84 -127 6 -7 43 -15 83 -19 l72 -7 5 34 c8 51 49 709 45 713
-7 7 -160 13 -163 7z"/>
<path d="M4977 8409 c-104 -24 -167 -100 -167 -199 0 -82 43 -144 149 -214 95
-63 121 -92 121 -132 0 -41 -38 -74 -85 -74 -53 0 -132 30 -174 67 -22 18 -42
30 -44 26 -2 -5 -7 -40 -11 -80 -7 -68 -6 -73 16 -86 44 -29 124 -49 209 -54
142 -9 210 29 249 140 23 65 24 78 9 130 -13 48 -63 104 -144 162 -68 48 -115
98 -115 121 0 8 12 27 26 41 24 24 31 25 92 21 64 -5 161 -42 177 -68 13 -21
23 -8 39 55 9 35 16 67 16 70 0 13 -108 55 -178 70 -80 17 -127 18 -185 4z"/>
<path d="M3455 8357 l-90 -22 -17 -340 c-9 -187 -17 -365 -17 -396 l-1 -57 73
22 72 23 3 89 3 90 97 22 c53 12 107 25 119 28 19 5 27 -3 60 -71 l38 -77 62
6 c75 8 95 14 91 30 -2 7 -86 162 -186 344 -129 233 -189 332 -200 331 -10 0
-57 -10 -107 -22z m185 -417 c-7 -4 -40 -13 -72 -20 -33 -6 -67 -14 -75 -17
-14 -5 -15 7 -9 98 4 57 9 128 12 157 l6 52 75 -131 c56 -97 72 -133 63 -139z"/>
<path d="M5505 8298 c-25 -71 -195 -686 -193 -697 2 -7 41 -27 88 -43 47 -16
127 -45 179 -64 52 -19 96 -33 97 -31 13 13 53 121 47 127 -4 4 -53 23 -108
44 -55 20 -106 40 -113 44 -9 6 -6 25 13 82 14 40 27 75 29 77 2 2 52 -15 111
-37 59 -22 109 -40 110 -38 2 2 14 31 28 65 l25 61 -92 35 c-50 19 -101 38
-114 42 -25 7 -25 6 6 99 10 26 22 50 27 52 6 3 64 -16 130 -41 65 -24 120
-43 122 -41 2 1 14 30 27 64 l24 60 -27 11 c-42 16 -402 141 -407 141 -2 0 -7
-6 -9 -12z"/>
<path d="M2960 8193 c-96 -40 -224 -94 -285 -119 -60 -25 -114 -49 -118 -54
-9 -8 42 -120 54 -120 4 0 50 20 101 44 51 24 96 41 99 38 3 -4 59 -124 124
-267 65 -143 121 -264 125 -268 7 -8 107 27 124 43 5 5 -25 93 -67 202 -133
341 -139 360 -130 369 5 5 49 23 98 40 50 17 92 32 94 35 5 4 -29 116 -38 125
-3 4 -85 -27 -181 -68z"/>
<path d="M6006 8103 c-9 -45 -86 -699 -86 -730 0 -24 9 -33 71 -66 l71 -38 76
62 c43 35 107 88 143 119 36 30 136 113 223 183 86 70 156 132 156 137 0 11
-139 102 -150 98 -17 -6 -430 -401 -430 -411 0 -6 -2 -8 -5 -6 -2 3 0 21 5 40
13 48 100 522 100 546 0 18 -39 40 -161 91 -4 2 -10 -10 -13 -25z"/>
<path d="M2255 7854 c-38 -25 -76 -48 -83 -53 -10 -6 3 -65 59 -267 39 -142
86 -312 103 -376 18 -65 35 -121 38 -124 10 -9 127 80 127 97 1 9 -10 47 -24
84 -15 38 -22 72 -17 77 4 4 51 35 102 67 l95 60 63 -62 62 -61 70 34 c38 19
70 38 70 42 0 4 -66 67 -147 140 -81 73 -210 190 -287 261 -77 70 -145 127
-151 126 -5 0 -41 -21 -80 -45z m218 -264 c42 -36 76 -69 76 -75 0 -11 -137
-100 -144 -93 -2 2 -19 62 -38 133 -19 72 -39 139 -43 150 -6 15 3 11 33 -15
22 -19 74 -64 116 -100z"/>
<path d="M6531 7408 l-215 -301 25 -21 c126 -106 283 -232 294 -234 12 -3 85
79 85 96 0 5 -43 46 -95 91 -52 46 -95 87 -95 91 0 4 21 34 47 67 26 32 48 60
49 62 2 2 39 -29 83 -68 45 -39 84 -71 88 -71 10 0 93 82 93 92 0 4 -37 39
-82 79 -46 40 -84 76 -86 80 -4 11 78 119 90 119 5 0 51 -36 102 -80 52 -44
98 -80 103 -80 12 0 85 89 81 99 -5 14 -334 281 -346 281 -4 -1 -103 -136
-221 -302z"/>
<path d="M1888 7599 c-38 -28 -68 -55 -68 -60 0 -10 202 -485 226 -531 16 -30
10 -36 -15 -14 -14 12 -409 244 -470 276 -22 11 -28 8 -82 -46 -33 -32 -59
-62 -59 -66 0 -8 680 -348 696 -348 6 0 40 28 77 63 l68 62 -147 358 c-81 196
-150 357 -153 357 -3 0 -36 -23 -73 -51z"/>
<path d="M4272 7433 c-11 -10 -187 -308 -392 -663 -205 -355 -379 -656 -387
-668 -14 -23 -18 -18 -135 185 -66 114 -127 216 -135 225 -22 25 -67 32 -100
15 -22 -12 -158 -241 -637 -1071 l-609 -1056 -258 0 c-246 0 -259 -1 -259 -19
0 -15 10 -19 59 -24 124 -13 239 -83 296 -181 33 -57 59 -177 52 -245 -13
-139 -117 -268 -252 -312 -22 -7 -41 -14 -43 -15 -2 -1 9 -43 24 -93 22 -73
31 -90 43 -85 9 3 42 11 73 17 155 29 328 -62 400 -211 30 -61 33 -76 33 -162
0 -88 -3 -101 -33 -162 -23 -46 -51 -84 -92 -121 l-60 -54 41 -59 c70 -100 64
-97 113 -63 83 55 206 73 307 43 115 -34 207 -119 249 -231 43 -112 22 -272
-46 -352 -13 -16 -24 -32 -24 -35 0 -3 34 -31 75 -62 l75 -57 23 29 c57 74
112 110 212 139 160 47 351 -43 430 -202 36 -73 47 -204 22 -277 -18 -51 -26
-43 87 -82 82 -28 86 -29 86 -8 0 30 63 134 103 170 22 20 69 50 106 68 59 27
76 31 156 31 76 0 99 -4 148 -27 128 -60 215 -183 225 -319 l5 -67 36 -6 c20
-3 61 -6 92 -6 l56 0 6 59 c15 140 92 253 214 313 53 26 80 32 146 36 98 5
170 -16 249 -74 56 -42 124 -138 134 -190 3 -19 8 -34 11 -34 2 0 44 12 94 27
71 21 88 30 84 42 -68 176 19 389 193 473 61 30 75 33 162 33 88 0 101 -3 162
-33 46 -23 84 -51 121 -92 61 -67 44 -69 155 13 49 35 52 40 38 56 -32 35 -67
131 -73 199 -24 289 278 495 540 368 29 -14 62 -33 74 -41 21 -16 23 -14 78
59 l58 76 -29 23 c-73 56 -110 111 -138 206 -21 72 -20 125 4 203 33 108 104
189 208 239 62 30 200 38 266 16 51 -18 43 -26 82 87 28 82 29 86 8 86 -30 0
-134 63 -170 103 -20 22 -50 69 -67 106 -28 58 -32 77 -32 151 0 78 3 92 37
163 21 43 54 93 75 113 59 55 156 98 234 102 l67 4 6 37 c3 20 6 53 6 74 l0
37 -259 0 -258 0 -794 1376 c-712 1235 -797 1378 -826 1391 -28 11 -38 11 -65
0 -28 -12 -55 -53 -192 -291 -88 -152 -162 -279 -165 -281 -4 -2 -112 180
-241 403 -129 224 -245 417 -257 430 -27 27 -82 30 -111 5z m223 -536 c81
-141 145 -263 142 -270 -10 -26 -78 -127 -85 -126 -4 0 -47 50 -97 110 -102
125 -118 139 -159 139 -41 0 -82 -48 -141 -168 -27 -56 -52 -102 -55 -102 -3
0 -31 26 -62 58 l-56 57 129 225 c218 377 210 364 224 349 6 -8 78 -130 160
-272z m1023 -416 c133 -231 242 -426 242 -433 0 -7 -35 -66 -79 -131 l-78
-118 -123 133 c-167 182 -186 198 -228 198 -32 0 -49 -13 -167 -130 -72 -71
-135 -130 -140 -130 -8 1 -73 83 -143 180 -13 17 10 62 224 435 131 228 241
415 244 415 4 0 115 -189 248 -419z m-1103 -95 c98 -117 109 -126 151 -126 42
0 58 15 118 110 53 83 59 89 72 73 7 -10 13 -25 13 -33 1 -17 -724 -1273 -736
-1277 -5 -2 -108 170 -230 382 l-222 385 151 263 c83 144 153 264 155 266 2 3
48 -39 102 -92 87 -86 102 -97 134 -97 46 0 72 31 138 162 27 54 51 98 54 98
2 0 47 -51 100 -114z m-989 -571 l92 -160 -28 -35 c-15 -19 -54 -64 -86 -99
l-59 -63 -94 115 c-130 160 -148 165 -261 77 -36 -27 -69 -49 -74 -47 -4 1
-19 36 -31 76 l-24 74 111 191 c61 105 128 222 150 259 l40 69 86 -149 c47
-81 127 -220 178 -308z m1954 -37 c183 -197 194 -208 230 -208 17 0 39 4 49
10 10 5 60 73 111 151 50 77 96 137 100 133 5 -5 157 -265 338 -579 181 -313
370 -640 419 -725 l90 -155 -37 -3 -37 -3 -7 -117 c-4 -64 -10 -127 -13 -139
l-5 -23 -1007 0 -1006 1 -236 411 -235 411 275 478 c152 263 278 479 281 479
3 0 42 -48 85 -107 101 -136 119 -153 163 -153 31 0 48 14 171 135 75 74 139
135 142 135 4 0 62 -60 129 -132z m-2589 -370 c37 -70 85 -65 195 17 48 36 90
67 94 68 4 1 53 -53 109 -121 56 -68 113 -127 127 -132 47 -18 73 -1 186 126
l111 124 27 -47 c15 -27 193 -334 394 -683 l366 -635 -515 -3 c-283 -1 -748
-1 -1033 0 -441 3 -509 5 -462 16 90 20 205 32 383 39 l169 6 -6 30 c-3 16 -6
65 -6 108 l0 79 -424 2 -423 3 318 550 c175 303 323 559 330 570 11 17 14 14
30 -37 10 -31 23 -67 30 -80z m3792 -1490 c-15 -67 -59 -202 -85 -263 -64
-147 -127 -215 -198 -215 -71 0 -250 94 -463 244 l-106 74 -42 -76 c-61 -114
-122 -195 -229 -306 -101 -105 -215 -195 -318 -253 -35 -19 -62 -38 -60 -42 2
-4 46 -72 100 -151 104 -157 179 -297 200 -373 11 -42 10 -51 -7 -83 -78 -146
-528 -284 -925 -284 -200 0 -348 37 -387 97 -34 51 6 312 85 560 l29 92 -56
11 c-94 18 -271 77 -361 120 -115 56 -260 154 -348 235 -40 37 -74 66 -76 64
-222 -300 -367 -454 -448 -474 -93 -23 -284 166 -434 431 -111 196 -213 478
-214 592 l0 22 2174 0 2174 0 -5 -22z m-693 -689 c60 -27 98 -64 126 -124 28
-58 32 -146 10 -199 -20 -49 -85 -116 -131 -137 -54 -25 -157 -25 -210 0 -149
69 -193 268 -86 392 70 83 194 112 291 68z m-2284 -357 c90 -47 138 -126 138
-227 0 -78 -15 -118 -68 -173 -66 -70 -155 -95 -247 -69 -232 68 -247 387 -23
477 60 25 143 21 200 -8z"/>
<path d="M6960 7055 l-264 -265 54 -55 53 -54 56 49 c31 26 76 69 101 94 50
52 62 55 84 24 29 -42 18 -94 -62 -294 l-20 -50 51 -67 c28 -37 54 -64 59 -59
20 20 109 270 115 322 l6 59 28 -15 c80 -41 181 -25 245 40 111 110 67 231
-168 464 l-73 72 -265 -265z m348 -8 c54 -66 58 -112 11 -151 -49 -41 -98 -36
-154 15 -25 23 -45 47 -45 53 -1 10 129 136 140 135 3 0 24 -23 48 -52z"/>
<path d="M6163 1439 l-233 -140 30 -60 c17 -32 34 -59 38 -59 4 0 44 20 90 44
83 44 83 44 96 22 8 -11 75 -130 150 -264 76 -133 140 -241 144 -239 52 29
152 90 152 94 0 3 -70 116 -155 252 -85 136 -155 252 -155 258 0 6 36 35 79
64 79 53 79 54 65 79 -9 14 -27 39 -42 57 l-27 32 -232 -140z"/>
<path d="M2475 1094 c-100 -183 -174 -329 -169 -334 18 -17 272 -149 319 -164
85 -29 157 -32 208 -7 79 38 120 125 103 217 -5 23 -23 53 -51 83 l-44 47 39
1 c153 3 215 192 98 300 -21 19 -157 97 -278 158 l-48 24 -177 -325z m326 98
c51 -33 66 -49 70 -77 11 -76 -74 -109 -164 -64 -23 12 -44 23 -45 25 -7 6 73
144 84 144 5 0 30 -13 55 -28z m-148 -258 c74 -37 97 -61 97 -101 0 -19 -5
-43 -10 -54 -12 -22 -60 -49 -87 -49 -24 0 -143 57 -143 68 0 10 82 162 87
162 2 0 27 -12 56 -26z"/>
<path d="M5690 1198 c-96 -39 -177 -72 -179 -74 -8 -7 232 -704 242 -704 13 0
445 174 453 183 8 8 -49 117 -61 117 -6 0 -69 -25 -139 -55 -70 -30 -129 -55
-131 -55 -7 0 -57 139 -53 150 2 6 51 32 108 56 57 25 106 47 108 48 3 3 -45
116 -52 123 -2 2 -52 -17 -112 -42 -124 -52 -118 -53 -149 39 -12 35 -16 59
-10 64 6 5 56 28 113 52 56 24 101 46 100 49 -2 4 -14 32 -27 64 -14 31 -27
57 -30 57 -3 0 -85 -33 -181 -72z"/>
<path d="M3227 1133 c-21 -36 -238 -686 -231 -692 5 -5 44 -20 87 -34 56 -19
79 -23 82 -14 2 7 50 161 105 344 55 183 103 339 106 347 4 10 -12 20 -57 35
-68 23 -85 25 -92 14z"/>
<path d="M5091 1013 c-36 -7 -67 -15 -69 -18 -5 -5 125 -725 131 -732 4 -3
466 107 476 113 2 2 -5 31 -16 66 -12 41 -24 63 -34 62 -7 -1 -71 -17 -141
-35 -70 -18 -129 -31 -132 -28 -3 3 -35 133 -70 288 -35 155 -67 286 -72 290
-5 4 -38 2 -73 -6z"/>
<path d="M3577 1006 c-91 -33 -137 -101 -137 -203 0 -78 34 -128 140 -206 94
-69 120 -97 120 -133 0 -97 -183 -84 -299 21 -28 26 -42 33 -45 24 -12 -38
-36 -128 -36 -137 0 -18 141 -81 215 -97 224 -47 363 32 353 201 -5 80 -37
129 -125 192 -136 97 -163 130 -141 177 18 41 74 52 151 31 34 -9 79 -28 99
-41 l37 -24 5 27 c3 15 8 48 12 73 l6 46 -49 20 c-100 43 -232 55 -306 29z"/>
<path d="M4860 974 c-8 -1 -36 -5 -62 -9 l-47 -6 -93 -174 c-51 -96 -96 -175
-100 -175 -5 0 -9 52 -9 115 -1 63 -3 120 -4 125 -1 6 -3 28 -4 50 l-1 41 -77
-3 -78 -3 0 -370 0 -370 90 0 90 0 -4 180 -4 180 49 -61 c174 -214 229 -274
253 -274 31 0 205 22 211 27 2 2 -74 82 -169 177 l-173 173 98 184 c55 100
101 186 102 191 4 8 -37 9 -68 2z"/>
<path d="M4075 947 c-3 -11 -35 -329 -51 -512 -4 -38 -10 -101 -14 -140 -4
-38 -4 -73 -1 -77 4 -4 46 -11 94 -14 87 -7 87 -7 87 17 0 34 25 459 36 631 7
100 12 94 -84 101 -43 4 -64 2 -67 -6z"/>
</g>
</svg>
